<svg xmlns="http://www.w3.org/2000/svg" viewBox="0 0 111 124">
  <path fill="#ffffff" transform="translate(-125 -84)" d="M230.509731,178.396362 C230.509731,173.353762 223.976787,167.593687 211.111912,164.237023 C206.753338,163.010398 202.609991,161.108272 198.829977,158.59864 C198.003309,158.122014 198.128942,153.718295 198.128942,153.718295 L193.985548,153.081948 C193.985548,152.724479 193.631262,147.443565 193.631262,147.443565 C198.588761,145.762698 198.078689,135.847358 198.078689,135.847358 C201.227065,137.609352 203.277405,129.762771 203.277405,129.762771 C207.001183,118.861221 201.423054,119.520385 201.423054,119.520385 C202.398925,112.865252 202.398925,106.101453 201.423054,99.4463204 C198.943048,77.3694133 161.60476,83.3627307 166.032086,90.5729655 C155.119557,88.54477 157.609613,113.598054 157.609613,113.598054 L159.976549,120.085744 C155.328108,123.128037 158.559403,126.806677 158.720214,131.040535 C158.948867,137.292447 162.740487,135.996937 162.740487,135.996937 C162.974165,146.315381 168.017096,147.659061 168.017096,147.659061 C168.964373,154.139145 168.373895,153.036314 168.373895,153.036314 L163.886265,153.583927 C163.947015,155.057567 163.828027,156.533155 163.531978,157.977505 C158.25537,160.350494 157.119642,161.742343 151.875699,164.062091 C141.74461,168.541868 130.734087,174.367859 128.776716,182.211905 C126.819346,190.055951 125,207.138672 125,207.138672 L236,207.138672 L230.509731,178.396362 Z"/>
</svg>
